<?xml version="1.0" encoding="utf-8"?>
<!-- Generator: Adobe Illustrator 27.5.0, SVG Export Plug-In . SVG Version: 6.00 Build 0)  -->
<svg version="1.1" xmlns="http://www.w3.org/2000/svg" xmlns:xlink="http://www.w3.org/1999/xlink" x="0px" y="0px"
	 viewBox="0 0 750 500" style="enable-background:new 0 0 750 500;" xml:space="preserve">
<g id="BACKGROUND">
	<g>
		<defs>
			<rect id="SVGID_1_" width="750" height="500"/>
		</defs>
		<clipPath id="SVGID_00000080190993545141916130000010245102811782823870_">
			<use xlink:href="#SVGID_1_"  style="overflow:visible;"/>
		</clipPath>
		<g style="clip-path:url(#SVGID_00000080190993545141916130000010245102811782823870_);">
			<defs>
				<rect id="SVGID_00000112594418713017839420000010508197741498115768_" width="750" height="500"/>
			</defs>
			<clipPath id="SVGID_00000039822722849358644250000011587590180775763111_">
				<use xlink:href="#SVGID_00000112594418713017839420000010508197741498115768_"  style="overflow:visible;"/>
			</clipPath>
			
				<linearGradient id="SVGID_00000020360881064067141350000011165473457446743217_" gradientUnits="userSpaceOnUse" x1="375" y1="500" x2="375" y2="-9.094947e-13">
				<stop  offset="0" style="stop-color:#232E44"/>
				<stop  offset="1" style="stop-color:#3E485A"/>
			</linearGradient>
			
				<rect style="clip-path:url(#SVGID_00000039822722849358644250000011587590180775763111_);fill:url(#SVGID_00000020360881064067141350000011165473457446743217_);" width="750" height="500"/>
			
				<linearGradient id="SVGID_00000027598057550817648740000007744819136870883488_" gradientUnits="userSpaceOnUse" x1="689.0678" y1="506.2306" x2="66.4005" y2="-1.7693">
				<stop  offset="0" style="stop-color:#3E485A"/>
				<stop  offset="1" style="stop-color:#3E485A;stop-opacity:0"/>
			</linearGradient>
			
				<path style="opacity:0.2;clip-path:url(#SVGID_00000039822722849358644250000011587590180775763111_);fill:url(#SVGID_00000027598057550817648740000007744819136870883488_);" d="
				M-488.029,387.276l-7.124-7.123L505.152-620.153l7.124,7.123L-488.029,387.276z M526.104-599.201l-7.123-7.123L-481.325,393.98
				l7.123,7.123L526.104-599.201z M539.931-585.373l-7.123-7.123L-467.497,407.808l7.123,7.124L539.931-585.373z M553.759-571.546
				l-7.123-7.123L-453.669,421.636l7.124,7.123L553.759-571.546z M567.587-557.718l-7.123-7.123L-439.841,435.464l7.123,7.123
				L567.587-557.718z M581.415-543.89l-7.123-7.123L-426.013,449.292l7.123,7.124L581.415-543.89z M595.243-530.062l-7.123-7.123
				L-412.185,463.119l7.124,7.123L595.243-530.062z M609.071-516.234l-7.123-7.124L-398.357,476.947l7.123,7.123L609.071-516.234z
				 M622.899-502.406l-7.123-7.123L-384.53,490.775l7.123,7.124L622.899-502.406z M636.726-488.578l-7.123-7.123L-370.702,504.603
				l7.124,7.124L636.726-488.578z M650.554-474.75l-7.123-7.124L-356.874,518.431l7.123,7.123L650.554-474.75z M664.382-460.923
				l-7.124-7.123L-343.046,532.259l7.124,7.123L664.382-460.923z M678.21-447.095l-7.123-7.123L-329.218,546.087l7.124,7.123
				L678.21-447.095z M692.038-433.267l-7.123-7.123L-315.39,559.914l7.123,7.123L692.038-433.267z M705.866-419.439l-7.123-7.124
				L-301.562,573.742l7.124,7.123L705.866-419.439z M719.694-405.611l-7.123-7.123L-287.734,587.57l7.123,7.124L719.694-405.611z
				 M733.521-391.783l-7.123-7.124L-273.907,601.398l7.123,7.123L733.521-391.783z M747.349-377.955l-7.123-7.124L-260.079,615.226
				l7.123,7.124L747.349-377.955z M761.177-364.128l-7.123-7.123L-246.251,629.054l7.123,7.124L761.177-364.128z M775.005-350.3
				l-7.123-7.124L-232.423,642.882l7.123,7.123L775.005-350.3z M788.833-336.472l-7.123-7.124L-218.595,656.71l7.124,7.123
				L788.833-336.472z M802.661-322.644l-7.123-7.123L-204.767,670.537l7.123,7.123L802.661-322.644z M816.489-308.816l-7.124-7.123
				L-190.939,684.365l7.124,7.123L816.489-308.816z M830.316-294.988l-7.123-7.124L-177.112,698.193l7.124,7.123L830.316-294.988z
				 M844.144-281.16l-7.123-7.123L-163.284,712.021l7.123,7.123L844.144-281.16z M857.972-267.332l-7.124-7.123L-149.456,725.849
				l7.124,7.123L857.972-267.332z M871.8-253.505l-7.123-7.124L-135.628,739.677l7.123,7.123L871.8-253.505z M885.628-239.677
				l-7.123-7.123L-121.8,753.505l7.123,7.124L885.628-239.677z M899.456-225.849l-7.123-7.123L-107.972,767.333l7.123,7.123
				L899.456-225.849z M913.284-212.021l-7.123-7.124L-94.144,781.16l7.123,7.123L913.284-212.021z M927.112-198.193l-7.123-7.123
				L-80.316,794.988l7.123,7.123L927.112-198.193z M940.939-184.365l-7.123-7.123L-66.489,808.816l7.124,7.123L940.939-184.365z
				 M954.767-170.537l-7.123-7.123L-52.661,822.644l7.123,7.123L954.767-170.537z M968.595-156.71l-7.123-7.123L-38.833,836.472
				l7.123,7.123L968.595-156.71z M982.423-142.882l-7.123-7.123L-25.005,850.3l7.124,7.124L982.423-142.882z M996.251-129.054
				l-7.123-7.124L-11.177,864.128l7.123,7.123L996.251-129.054z M1010.079-115.226l-7.124-7.124L2.651,877.955l7.124,7.124
				L1010.079-115.226z M1023.907-101.398l-7.123-7.123L16.479,891.783l7.123,7.123L1023.907-101.398z M1037.734-87.57l-7.123-7.124
				L30.306,905.611l7.123,7.123L1037.734-87.57z M1051.562-73.742l-7.124-7.123L44.134,919.439l7.124,7.123L1051.562-73.742z
				 M1065.39-59.915l-7.123-7.123L57.962,933.267l7.123,7.123L1065.39-59.915z M1079.218-46.087l-7.124-7.123L71.79,947.095
				l7.123,7.123L1079.218-46.087z M1093.046-32.259l-7.124-7.123L85.618,960.923l7.123,7.123L1093.046-32.259z M1106.874-18.431
				l-7.123-7.123L99.446,974.75l7.123,7.124L1106.874-18.431z M1120.702-4.603l-7.123-7.123L113.274,988.578l7.123,7.123
				L1120.702-4.603z M1134.53,9.225l-7.123-7.124L127.101,1002.406l7.123,7.123L1134.53,9.225z M1148.357,23.053l-7.123-7.123
				L140.929,1016.234l7.123,7.124L1148.357,23.053z M1162.185,36.881l-7.124-7.123L154.757,1030.062l7.124,7.123L1162.185,36.881z
				 M1176.013,50.708l-7.123-7.124L168.585,1043.89l7.123,7.123L1176.013,50.708z M1189.841,64.536l-7.123-7.123L182.413,1057.718
				l7.123,7.124L1189.841,64.536z M1203.669,78.364l-7.124-7.123L196.241,1071.546l7.124,7.123L1203.669,78.364z M1217.497,92.192
				l-7.123-7.123L210.069,1085.374l7.123,7.123L1217.497,92.192z M1231.325,106.02l-7.123-7.123L223.896,1099.201l7.123,7.124
				L1231.325,106.02z M1245.152,119.848l-7.123-7.123L237.724,1113.029l7.124,7.123L1245.152,119.848z"/>
		</g>
		
			<linearGradient id="SVGID_00000152229794693054209750000004396032895488040334_" gradientUnits="userSpaceOnUse" x1="770.8286" y1="382.6106" x2="770.8286" y2="-20.0967">
			<stop  offset="0" style="stop-color:#FF8F1B"/>
			<stop  offset="1" style="stop-color:#FFD51B"/>
		</linearGradient>
		
			<path style="clip-path:url(#SVGID_00000080190993545141916130000010245102811782823870_);fill:url(#SVGID_00000152229794693054209750000004396032895488040334_);" d="
			M1145.815,225.539l-50.59,50.591c-5.738,5.738-15.041,5.738-20.779,0h0c-5.738-5.738-5.738-15.041,0-20.779l103.256-103.256
			c5.738-5.738,5.738-15.041,0-20.779l0,0c-5.738-5.738-15.041-5.738-20.779,0l-41.559,41.559c-5.738,5.738-15.041,5.738-20.779,0
			l0,0c-5.738-5.738-5.738-15.041,0-20.779l41.559-41.559c5.738-5.738,5.738-15.041,0-20.779l0,0
			c-5.738-5.738-15.041-5.738-20.779,0l-99.24,99.24c-5.738,5.738-15.041,5.738-20.779,0l0,0c-5.738-5.738-5.738-15.041,0-20.779
			l99.24-99.24c5.738-5.738,5.738-15.041,0-20.779l0,0c-5.738-5.738-15.041-5.738-20.779,0l-50.635,50.635
			c-5.738,5.738-15.041,5.738-20.779,0h0c-5.738-5.738-5.738-15.041,0-20.779l11.704-11.703c5.738-5.738,5.738-15.041,0-20.779l0,0
			c-5.738-5.738-15.041-5.738-20.779,0L951.022,87.86c-5.738,5.738-15.041,5.738-20.779,0l0,0c-5.738-5.738-5.738-15.041,0-20.779
			l81.223-81.222c5.738-5.738,5.738-15.041,0-20.779v0c-5.738-5.738-15.041-5.738-20.779,0l-94.224,94.225
			c-5.738,5.738-15.041,5.738-20.779,0l0,0c-5.738-5.738-5.738-15.041,0-20.779l64.369-64.369c5.738-5.738,5.738-15.041,0-20.779
			l0,0c-5.738-5.738-15.041-5.738-20.779,0l-3.463,3.463c-5.738,5.738-15.041,5.738-20.779,0h0c-5.738-5.738-5.738-15.041,0-20.779
			l33.319-33.319c5.738-5.738,5.738-15.041,0-20.779l0,0c-5.738-5.738-15.041-5.738-20.779,0L786.473,3.055
			c-5.738,5.738-15.041,5.738-20.779,0l0,0c-5.738-5.738-5.738-15.041,0-20.779l82.163-82.163c5.738-5.738,5.738-15.041,0-20.779
			l0,0c-5.738-5.738-15.041-5.738-20.779,0l-19.824,19.824c-5.738,5.738-15.041,5.738-20.779,0l0,0
			c-5.738-5.738-5.738-15.041,0-20.779l58.756-58.756c5.738-5.738,5.738-15.041,0-20.779l0,0c-5.738-5.738-15.041-5.738-20.779,0
			L666.095-42.803c-5.738,5.738-15.041,5.738-20.779,0v0c-5.738-5.738-5.738-15.041,0-20.779l70.579-70.579
			c5.738-5.738,5.738-15.041,0-20.779l0,0c-5.738-5.738-15.041-5.738-20.779,0l-33.677,33.677c-5.738,5.738-15.041,5.738-20.779,0
			l0,0c-5.738-5.738-5.738-15.041,0-20.779l83.596-83.596c5.738-5.738,5.738-15.041,0-20.779l0,0
			c-5.738-5.738-15.041-5.738-20.779,0l-32.961,32.961c-5.738,5.738-15.041,5.738-20.779,0l0,0c-5.738-5.738-5.738-15.041,0-20.78
			l32.961-32.961c5.738-5.738,5.738-15.041,0-20.779v0c-5.738-5.738-15.041-5.738-20.779,0L363.956,9.982
			c-5.738,5.738-5.738,15.041,0,20.78h0c5.738,5.738,15.041,5.738,20.779,0l13.137-13.137c5.738-5.738,15.041-5.738,20.78,0l0,0
			c5.738,5.738,5.738,15.041,0,20.779l-40.604,40.604c-5.738,5.738-5.738,15.041,0,20.78l0,0c5.738,5.738,15.041,5.738,20.78,0
			l55.098-55.098c5.738-5.738,15.041-5.738,20.779,0l0,0c5.738,5.738,5.738,15.041,0,20.779l-55.098,55.098
			c-5.738,5.738-5.738,15.041,0,20.779l0,0c5.738,5.738,15.041,5.738,20.779,0l23.407-23.407c5.738-5.738,15.041-5.738,20.779,0l0,0
			c5.738,5.738,5.738,15.041,0,20.779l-23.407,23.407c-5.738,5.738-5.738,15.041,0,20.779l0,0c5.738,5.738,15.041,5.738,20.779,0
			l88.85-88.85c5.738-5.738,15.041-5.738,20.779,0l0,0c5.738,5.738,5.738,15.041,0,20.779l-49.522,49.522
			c-5.738,5.738-5.738,15.041,0,20.779l0,0c5.738,5.738,15.041,5.738,20.779,0l29.378-29.378c5.738-5.738,15.041-5.738,20.779,0l0,0
			c5.738,5.738,5.738,15.041,0,20.779l-29.378,29.378c-5.738,5.738-5.738,15.041,0,20.779l0,0c5.738,5.738,15.041,5.738,20.779,0
			l64.211-64.211c5.738-5.738,15.041-5.738,20.779,0l0,0c5.738,5.738,5.738,15.041,0,20.779L585.843,286.803
			c-5.738,5.738-5.738,15.041,0,20.779l0,0c5.738,5.738,15.041,5.738,20.779,0l38.693-38.693c5.738-5.738,15.041-5.738,20.779,0l0,0
			c5.738,5.738,5.738,15.041,0,20.779l-38.693,38.693c-5.738,5.738-5.738,15.041,0,20.779l0,0c5.738,5.738,15.041,5.738,20.779,0
			l96.478-96.478c5.738-5.738,15.041-5.738,20.779,0l0,0c5.738,5.738,5.738,15.041,0,20.779l-35.095,35.095
			c-5.738,5.738-5.738,15.041,0,20.779l0,0c5.738,5.738,15.041,5.738,20.779,0l51.576-51.576c5.738-5.738,15.041-5.738,20.779,0l0,0
			c5.738,5.738,5.738,15.041,0,20.779L710.52,411.48c-5.738,5.738-5.738,15.041,0,20.779l0,0c5.738,5.738,15.041,5.738,20.779,0
			l23.646-23.646c5.738-5.738,15.041-5.738,20.779,0l0,0c5.738,5.738,5.738,15.041,0,20.779l-23.646,23.646
			c-5.738,5.738-5.738,15.041,0,20.779h0c5.738,5.738,15.041,5.738,20.779,0l14.331-14.331c5.738-5.738,15.041-5.738,20.779,0l0,0
			c5.738,5.738,5.738,15.041,0,20.779l-14.331,14.331c-5.738,5.738-5.738,15.041,0,20.779l0,0c5.738,5.738,15.041,5.738,20.779,0
			l126.11-126.11c5.738-5.738,15.041-5.738,20.779,0l0,0c5.738,5.738,5.738,15.041,0,20.779l-59.831,59.831
			c-5.738,5.738-5.738,15.041,0,20.779l0,0c5.738,5.738,15.041,5.738,20.779,0l244.338-244.338c5.738-5.738,5.738-15.041,0-20.779
			l0,0C1160.856,219.801,1151.553,219.801,1145.815,225.539z M512.757-76.48L512.757-76.48c-5.738-5.738-5.738-15.041,0-20.78
			l21.496-21.496c5.738-5.738,15.041-5.738,20.779,0l0,0c5.738,5.738,5.738,15.041,0,20.779L533.536-76.48
			C527.798-70.742,518.495-70.742,512.757-76.48z M876.756,390.7L876.756,390.7c-5.738-5.738-5.738-15.041,0-20.78l91.716-91.716
			c5.738-5.738,15.041-5.738,20.78,0l0,0c5.738,5.738,5.738,15.041,0,20.78L897.536,390.7
			C891.798,396.439,882.494,396.439,876.756,390.7z"/>
		
			<linearGradient id="SVGID_00000080194095658054883110000012002672203192397213_" gradientUnits="userSpaceOnUse" x1="52.1761" y1="875.3145" x2="52.1761" y2="63.3522">
			<stop  offset="0.2821" style="stop-color:#FF3463"/>
			<stop  offset="0.8296" style="stop-color:#FF6990"/>
		</linearGradient>
		
			<path style="clip-path:url(#SVGID_00000080190993545141916130000010245102811782823870_);fill:url(#SVGID_00000080194095658054883110000012002672203192397213_);" d="
			M395.148,581.172l-50.591,50.59c-5.738,5.738-15.041,5.738-20.779,0l0,0c-5.738-5.738-5.738-15.041,0-20.779l167.284-167.284
			c5.738-5.738,5.738-15.041,0-20.779l0,0c-5.738-5.738-15.041-5.738-20.779,0L364.696,528.507c-5.738,5.738-15.041,5.738-20.779,0
			l0,0c-5.738-5.738-5.738-15.041,0-20.779l57.242-57.242c5.738-5.738,5.738-15.041,0-20.779h0c-5.738-5.738-15.041-5.738-20.779,0
			L265.456,544.629c-5.738,5.738-15.041,5.738-20.779,0l0,0c-5.738-5.738-5.738-15.041,0-20.779L388.105,380.42
			c5.738-5.738,5.738-15.041,0-20.779l0,0c-5.738-5.738-15.041-5.738-20.779,0l-94.824,94.824c-5.738,5.738-15.041,5.738-20.779,0
			l0,0c-5.738-5.738-5.738-15.041,0-20.779l11.704-11.703c5.738-5.738,5.738-15.041,0-20.779l0,0
			c-5.738-5.738-15.041-5.738-20.779,0l-42.291,42.291c-5.738,5.738-15.041,5.738-20.779,0l0,0c-5.738-5.738-5.738-15.041,0-20.779
			l89.019-89.019c5.738-5.738,5.738-15.041,0-20.779l0,0c-5.738-5.738-15.041-5.738-20.779,0L145.794,414.936
			c-5.738,5.738-15.041,5.738-20.779,0l0,0c-5.738-5.738-5.738-15.041,0-20.779l64.369-64.369c5.738-5.738,5.738-15.041,0-20.779
			l0,0c-5.738-5.738-15.041-5.738-20.779,0l-3.463,3.463c-5.738,5.738-15.041,5.738-20.779,0l0,0
			c-5.738-5.738-5.738-15.041,0-20.779l76.193-76.193c5.738-5.738,5.738-15.041,0-20.779l0,0c-5.738-5.738-15.041-5.738-20.779,0
			L35.806,358.688c-5.738,5.738-15.041,5.738-20.779,0l0,0c-5.738-5.738-5.738-15.041,0-20.779l82.163-82.163
			c5.738-5.738,5.738-15.041,0-20.779l0,0c-5.738-5.738-15.041-5.738-20.779,0l-19.824,19.824c-5.738,5.738-15.041,5.738-20.779,0
			l0,0c-5.738-5.738-5.738-15.041,0-20.779l58.756-58.756c5.738-5.738,5.738-15.041,0-20.779l0,0
			c-5.738-5.738-15.041-5.738-20.779,0L-84.572,312.83c-5.738,5.738-15.041,5.738-20.779,0l0,0c-5.738-5.738-5.738-15.041,0-20.779
			l70.579-70.579c5.738-5.738,5.738-15.041,0-20.779h0c-5.738-5.738-15.041-5.738-20.779,0l-33.677,33.677
			c-5.738,5.738-15.041,5.738-20.779,0l0,0c-5.738-5.738-5.738-15.041,0-20.779l83.596-83.596c5.738-5.738,5.738-15.041,0-20.779
			l0,0c-5.738-5.738-15.041-5.738-20.779,0l-32.961,32.961c-5.738,5.738-15.041,5.738-20.779,0l0,0
			c-5.738-5.738-5.738-15.041,0-20.779l32.961-32.961c5.738-5.738,5.738-15.041,0-20.78h0c-5.738-5.738-15.041-5.738-20.78,0
			l-297.959,297.959c-5.738,5.738-5.738,15.041,0,20.779l0,0c5.738,5.738,15.041,5.738,20.779,0l13.137-13.137
			c5.738-5.738,15.041-5.738,20.779,0l0,0c5.738,5.738,5.738,15.041,0,20.779l-40.604,40.604c-5.738,5.738-5.738,15.041,0,20.779
			l0,0c5.738,5.738,15.041,5.738,20.779,0l55.098-55.098c5.738-5.738,15.041-5.738,20.779,0l0,0c5.738,5.738,5.738,15.041,0,20.78
			L-331.06,476.2c-5.738,5.738-5.738,15.041,0,20.78l0,0c5.738,5.738,15.041,5.738,20.78,0l23.407-23.407
			c5.738-5.738,15.041-5.738,20.779,0h0c5.738,5.738,5.738,15.041,0,20.779l-23.407,23.407c-5.738,5.738-5.738,15.041,0,20.779l0,0
			c5.738,5.738,15.041,5.738,20.779,0l88.85-88.85c5.738-5.738,15.041-5.738,20.779,0l0,0c5.738,5.738,5.738,15.041,0,20.779
			l-49.522,49.522c-5.738,5.738-5.738,15.041,0,20.779v0c5.738,5.738,15.041,5.738,20.779,0l29.378-29.378
			c5.738-5.738,15.041-5.738,20.779,0l0,0c5.738,5.738,5.738,15.041,0,20.779l-29.378,29.378c-5.738,5.738-5.738,15.041,0,20.779
			l0,0c5.738,5.738,15.041,5.738,20.779,0l64.211-64.211c5.738-5.738,15.041-5.738,20.779,0l0,0c5.738,5.738,5.738,15.041,0,20.779
			l-103.539,103.539c-5.738,5.738-5.738,15.041,0,20.779l0,0c5.738,5.738,15.041,5.738,20.779,0l38.693-38.693
			c5.738-5.738,15.041-5.738,20.779,0l0,0c5.738,5.738,5.738,15.041,0,20.779l-38.693,38.693c-5.738,5.738-5.738,15.041,0,20.779
			l0,0c5.738,5.738,15.041,5.738,20.779,0l96.478-96.478c5.738-5.738,15.041-5.738,20.779,0l0,0c5.738,5.738,5.738,15.041,0,20.779
			l-35.095,35.095c-5.738,5.738-5.738,15.041,0,20.779l0,0c5.738,5.738,15.041,5.738,20.779,0l51.576-51.576
			c5.738-5.738,15.041-5.738,20.779,0l0,0c5.738,5.738,5.738,15.041,0,20.779L-40.146,767.113c-5.738,5.738-5.738,15.041,0,20.779
			l0,0c5.738,5.738,15.041,5.738,20.779,0l23.646-23.646c5.738-5.738,15.041-5.738,20.779,0l0,0c5.738,5.738,5.738,15.041,0,20.779
			L1.413,808.672c-5.738,5.738-5.738,15.041,0,20.779l0,0c5.738,5.738,15.041,5.738,20.779,0l14.331-14.331
			c5.738-5.738,15.041-5.738,20.779,0l0,0c5.738,5.738,5.738,15.041,0,20.779l-14.331,14.331c-5.738,5.738-5.738,15.041,0,20.779
			l0,0c5.738,5.738,15.041,5.738,20.779,0l126.11-126.11c5.738-5.738,15.041-5.738,20.779,0v0c5.738,5.738,5.738,15.041,0,20.779
			l-59.831,59.831c-5.738,5.738-5.738,15.041,0,20.779l0,0c5.738,5.738,15.041,5.738,20.779,0l244.338-244.338
			c5.738-5.738,5.738-15.041,0-20.779l0,0C410.19,575.434,400.887,575.434,395.148,581.172z M-237.91,279.153L-237.91,279.153
			c-5.738-5.738-5.738-15.041,0-20.78l21.496-21.496c5.738-5.738,15.041-5.738,20.779,0v0c5.738,5.738,5.738,15.041,0,20.78
			l-21.496,21.496C-222.869,284.891-232.172,284.891-237.91,279.153z M126.09,746.334L126.09,746.334
			c-5.738-5.738-5.738-15.042,0-20.78l91.716-91.716c5.738-5.738,15.041-5.738,20.78,0l0,0c5.738,5.738,5.738,15.042,0,20.78
			l-91.716,91.716C141.131,752.072,131.828,752.072,126.09,746.334z"/>
		<g style="clip-path:url(#SVGID_00000080190993545141916130000010245102811782823870_);">
			
				<linearGradient id="SVGID_00000114768211355336680850000005125854524956982444_" gradientUnits="userSpaceOnUse" x1="525.5537" y1="544.878" x2="525.5537" y2="451.1392">
				<stop  offset="0.2821" style="stop-color:#FFA31B"/>
				<stop  offset="0.8296" style="stop-color:#FFD51B"/>
			</linearGradient>
			<path style="fill:url(#SVGID_00000114768211355336680850000005125854524956982444_);" d="M525.554,471.139
				c14.816,0,26.87,12.054,26.87,26.869s-12.054,26.869-26.87,26.869c-14.816,0-26.869-12.054-26.869-26.869
				S510.738,471.139,525.554,471.139 M525.554,451.139c-25.885,0-46.869,20.984-46.869,46.869c0,25.885,20.984,46.869,46.869,46.869
				c25.885,0,46.87-20.984,46.87-46.869C572.423,472.123,551.439,451.139,525.554,451.139L525.554,451.139z"/>
		</g>
		<g style="clip-path:url(#SVGID_00000080190993545141916130000010245102811782823870_);">
			
				<linearGradient id="SVGID_00000087397835347392707550000000060219590308639110_" gradientUnits="userSpaceOnUse" x1="255.7457" y1="68.1606" x2="255.7457" y2="-66.9699">
				<stop  offset="0.2821" style="stop-color:#FF3463"/>
				<stop  offset="0.8296" style="stop-color:#FF6990"/>
			</linearGradient>
			<path style="fill:url(#SVGID_00000087397835347392707550000000060219590308639110_);" d="M255.746-58.97
				c32.844,0,59.565,26.721,59.565,59.565s-26.721,59.565-59.565,59.565c-32.844,0-59.565-26.721-59.565-59.565
				S222.901-58.97,255.746-58.97 M255.746-66.97c-37.315,0-67.565,30.25-67.565,67.565c0,37.315,30.25,67.565,67.565,67.565
				c37.315,0,67.565-30.25,67.565-67.565C323.311-36.72,293.061-66.97,255.746-66.97L255.746-66.97z"/>
		</g>
		<g style="clip-path:url(#SVGID_00000080190993545141916130000010245102811782823870_);">
			
				<linearGradient id="SVGID_00000181065703009517736150000003999970549526425233_" gradientUnits="userSpaceOnUse" x1="408.9619" y1="358.1501" x2="408.9619" y2="318.5621">
				<stop  offset="0.2821" style="stop-color:#FF3463"/>
				<stop  offset="0.8296" style="stop-color:#FF6990"/>
			</linearGradient>
			<path style="fill:url(#SVGID_00000181065703009517736150000003999970549526425233_);" d="M408.962,325.095
				c7.312,0,13.261,5.949,13.261,13.261s-5.949,13.261-13.261,13.261c-7.312,0-13.261-5.949-13.261-13.261
				S401.65,325.095,408.962,325.095 M408.962,318.562c-10.932,0-19.794,8.862-19.794,19.794c0,10.932,8.862,19.794,19.794,19.794
				c10.932,0,19.794-8.862,19.794-19.794C428.756,327.424,419.894,318.562,408.962,318.562L408.962,318.562z"/>
		</g>
		<g style="clip-path:url(#SVGID_00000080190993545141916130000010245102811782823870_);">
			<circle style="fill:#FFFFFF;" cx="525.598" cy="497.844" r="16.22"/>
		</g>
		<g style="clip-path:url(#SVGID_00000080190993545141916130000010245102811782823870_);">
			<path style="fill:#FFFFFF;" d="M712.064,340.817c4.36,0,7.906,3.547,7.906,7.906s-3.547,7.906-7.906,7.906
				c-4.36,0-7.906-3.547-7.906-7.906S707.704,340.817,712.064,340.817 M712.064,332.817c-8.785,0-15.906,7.122-15.906,15.906
				s7.122,15.906,15.906,15.906c8.785,0,15.906-7.121,15.906-15.906S720.849,332.817,712.064,332.817L712.064,332.817z"/>
		</g>
		<g style="clip-path:url(#SVGID_00000080190993545141916130000010245102811782823870_);">
			<path style="fill:#FFFFFF;" d="M255.746-7.311c4.36,0,7.906,3.547,7.906,7.906c0,4.36-3.547,7.906-7.906,7.906
				c-4.36,0-7.906-3.547-7.906-7.906C247.839-3.764,251.386-7.311,255.746-7.311 M255.746-15.311
				c-8.785,0-15.906,7.122-15.906,15.906s7.121,15.906,15.906,15.906c8.785,0,15.906-7.122,15.906-15.906
				S264.53-15.311,255.746-15.311L255.746-15.311z"/>
		</g>
		
			<linearGradient id="SVGID_00000101094904957507245580000009038739518396462986_" gradientUnits="userSpaceOnUse" x1="-4.9323" y1="94.1774" x2="151.1452" y2="94.1774">
			<stop  offset="0.2821" style="stop-color:#FFA31B"/>
			<stop  offset="0.8296" style="stop-color:#FFD51B"/>
		</linearGradient>
		
			<path style="clip-path:url(#SVGID_00000080190993545141916130000010245102811782823870_);fill:url(#SVGID_00000101094904957507245580000009038739518396462986_);" d="
			M-1.706,168.989L-1.706,168.989c-4.302-4.302-4.302-11.277,0-15.58L132.339,19.365c4.302-4.302,11.277-4.302,15.58,0l0,0
			c4.302,4.302,4.302,11.277,0,15.58L13.874,168.989C9.572,173.292,2.597,173.292-1.706,168.989z"/>
		
			<path style="clip-path:url(#SVGID_00000080190993545141916130000010245102811782823870_);fill:none;stroke:#60727F;stroke-width:2.1639;stroke-miterlimit:10;" d="
			M107.361,228.832L107.361,228.832c-6.105-6.105-6.105-16.005,0-22.11l90.019-90.019c6.105-6.106,16.005-6.106,22.11,0h0
			c6.105,6.105,6.105,16.004,0,22.11l-90.019,90.018C123.366,234.937,113.466,234.937,107.361,228.832z"/>
		
			<path style="clip-path:url(#SVGID_00000080190993545141916130000010245102811782823870_);fill:none;stroke:#60727F;stroke-width:1.6364;stroke-miterlimit:10;" d="
			M104.003,146.067L104.003,146.067c-6.105-6.105-6.105-16.005,0-22.11l42.019-42.019c6.105-6.105,16.005-6.105,22.11,0l0,0
			c6.105,6.105,6.105,16.004,0,22.11l-42.019,42.019C120.008,152.172,110.109,152.172,104.003,146.067z"/>
		
			<path style="clip-path:url(#SVGID_00000080190993545141916130000010245102811782823870_);fill:none;stroke:#60727F;stroke-width:1.7371;stroke-miterlimit:10;" d="
			M505.123,410.594L505.123,410.594c-5.578-5.578-5.578-14.623,0-20.201l58.891-58.89c5.578-5.578,14.623-5.578,20.201,0l0,0
			c5.578,5.578,5.578,14.623,0,20.201l-58.891,58.891C519.745,416.172,510.701,416.172,505.123,410.594z"/>
		
			<path style="clip-path:url(#SVGID_00000080190993545141916130000010245102811782823870_);fill:none;stroke:#60727F;stroke-width:1.6364;stroke-miterlimit:10;" d="
			M65.414,52.659L65.414,52.659c-2.924-2.924-2.924-7.664,0-10.588L190.766-83.281c2.924-2.924,7.664-2.924,10.588,0l0,0
			c2.924,2.924,2.924,7.664,0,10.588L76.003,52.659C73.079,55.583,68.338,55.583,65.414,52.659z"/>
		
			<linearGradient id="SVGID_00000064325966092201152480000008890482426527573683_" gradientUnits="userSpaceOnUse" x1="-25.8358" y1="58.2303" x2="46.0583" y2="58.2303">
			<stop  offset="0.2821" style="stop-color:#FFA31B"/>
			<stop  offset="0.8296" style="stop-color:#FFD51B"/>
		</linearGradient>
		
			<path style="clip-path:url(#SVGID_00000080190993545141916130000010245102811782823870_);fill:url(#SVGID_00000064325966092201152480000008890482426527573683_);" d="
			M-22.609,90.951L-22.609,90.951c-4.302-4.302-4.302-11.277,0-15.58L27.252,25.51c4.302-4.302,11.277-4.302,15.58,0h0
			c4.302,4.302,4.302,11.277,0,15.58L-7.03,90.951C-11.332,95.253-18.307,95.253-22.609,90.951z"/>
		<g style="clip-path:url(#SVGID_00000080190993545141916130000010245102811782823870_);">
			<path style="fill:#FFFFFF;" d="M714.474,478.622c0.999,0,1.938,0.389,2.644,1.095l17.913,17.913c1.458,1.458,1.458,3.83,0,5.288
				l-17.913,17.913c-0.706,0.706-1.645,1.095-2.644,1.095c-0.999,0-1.938-0.389-2.644-1.095l-17.913-17.913
				c-1.458-1.458-1.458-3.83,0-5.288l17.913-17.913C712.536,479.011,713.475,478.622,714.474,478.622 M714.474,475.622
				c-1.725,0-3.45,0.658-4.766,1.974l-17.913,17.913c-2.632,2.632-2.632,6.899,0,9.531l17.913,17.913
				c1.316,1.316,3.041,1.974,4.766,1.974c1.725,0,3.449-0.658,4.766-1.974l17.913-17.913c2.632-2.632,2.632-6.899,0-9.531
				l-17.913-17.913C717.923,476.28,716.199,475.622,714.474,475.622L714.474,475.622z"/>
		</g>
		
			<linearGradient id="SVGID_00000145045822847826181520000001781359075169056915_" gradientUnits="userSpaceOnUse" x1="271.5211" y1="445.7465" x2="271.5211" y2="307.0136" gradientTransform="matrix(0.7071 0.7071 -0.3596 0.3596 169.6927 -55.0831)">
			<stop  offset="0" style="stop-color:#FF426F"/>
			<stop  offset="1" style="stop-color:#FF6990"/>
		</linearGradient>
		
			<path style="clip-path:url(#SVGID_00000080190993545141916130000010245102811782823870_);fill:url(#SVGID_00000145045822847826181520000001781359075169056915_);" d="
			M201.395,297.2L201.395,297.2c-5.625-5.625-5.625-14.744,0-20.369l29.52-29.52c5.625-5.625,14.744-5.625,20.369,0l0,0
			c5.625,5.625,5.625,14.744,0,20.369l-29.52,29.52C216.139,302.824,207.02,302.824,201.395,297.2z"/>
		
			<linearGradient id="SVGID_00000081642470194419753850000001493851691915087529_" gradientUnits="userSpaceOnUse" x1="433.6858" y1="-26.3831" x2="433.6858" y2="-165.1159" gradientTransform="matrix(0.7071 0.7071 -0.3596 0.3596 169.6927 -55.0831)">
			<stop  offset="0" style="stop-color:#FF426F"/>
			<stop  offset="1" style="stop-color:#FF6990"/>
		</linearGradient>
		
			<path style="clip-path:url(#SVGID_00000080190993545141916130000010245102811782823870_);fill:url(#SVGID_00000081642470194419753850000001493851691915087529_);" d="
			M485.839,242.089L485.839,242.089c-5.625-5.625-5.625-14.744,0-20.369l29.519-29.52c5.625-5.625,14.744-5.625,20.369,0l0,0
			c5.625,5.625,5.625,14.744,0,20.369l-29.52,29.52C500.583,247.713,491.464,247.713,485.839,242.089z"/>
		
			<linearGradient id="SVGID_00000023248682142922561090000015027371380234333113_" gradientUnits="userSpaceOnUse" x1="201.2141" y1="5.0168" x2="201.2141" y2="-133.7163" gradientTransform="matrix(0.7071 0.7071 -0.3596 0.3596 169.6927 -55.0831)">
			<stop  offset="0" style="stop-color:#FFD51B"/>
			<stop  offset="1" style="stop-color:#FFAF1B"/>
		</linearGradient>
		
			<path style="clip-path:url(#SVGID_00000080190993545141916130000010245102811782823870_);fill:url(#SVGID_00000023248682142922561090000015027371380234333113_);" d="
			M310.167,88.999L310.167,88.999c-5.625-5.625-5.625-14.744,0-20.369l29.52-29.52c5.625-5.625,14.744-5.625,20.369,0v0
			c5.625,5.625,5.625,14.744,0,20.369l-29.52,29.52C324.911,94.624,315.792,94.624,310.167,88.999z"/>
		
			<linearGradient id="SVGID_00000065041320938805775690000004611747963998198932_" gradientUnits="userSpaceOnUse" x1="666.4817" y1="2.4118" x2="666.4817" y2="-136.3211" gradientTransform="matrix(0.7071 0.7071 -0.3596 0.3596 169.6927 -55.0831)">
			<stop  offset="0" style="stop-color:#FFD51B"/>
			<stop  offset="1" style="stop-color:#FFAF1B"/>
		</linearGradient>
		
			<path style="clip-path:url(#SVGID_00000080190993545141916130000010245102811782823870_);fill:url(#SVGID_00000065041320938805775690000004611747963998198932_);" d="
			M640.095,417.053L640.095,417.053c-5.625-5.625-5.625-14.744,0-20.369l29.52-29.52c5.625-5.625,14.744-5.625,20.369,0v0
			c5.625,5.625,5.625,14.744,0,20.369l-29.519,29.52C654.839,422.678,645.719,422.678,640.095,417.053z"/>
	</g>
</g>
<g id="OBJECTS">
</g>
</svg>
