<svg xmlns="http://www.w3.org/2000/svg" viewBox="0 0 24 24" id="mixcloud"><path d="M4.26 17.608h10.896c1.969 0 3.573-1.578 3.573-3.526 0-1.681-1.209-3.093-2.802-3.433v.001C15.615 7.485 12.906 5 9.625 5 6.907 5 4.501 6.732 3.636 9.247 1.583 9.546 0 11.289 0 13.402c0 2.319 1.906 4.206 4.26 4.206zm.001-6.836c.709 0 1.375.278 1.875.773.751.744 1.886-.38 1.136-1.124a4.354 4.354 0 0 0-1.959-1.093c.75-1.65 2.437-2.752 4.312-2.752 2.615 0 4.739 2.103 4.739 4.68 0 .505-.083 1-.24 1.474-.336 1.025 1.209 1.45 1.51.495a6.04 6.04 0 0 0 .24-.948c.729.278 1.26.979 1.26 1.804 0 1.072-.885 1.948-1.979 1.948l.001.002H4.261c-1.469 0-2.667-1.176-2.667-2.629 0-1.454 1.198-2.63 2.667-2.63zm17.071 3.31a5.756 5.756 0 0 0-1.01-3.278c-.608-.878-1.916.021-1.323.876.49.711.739 1.547.739 2.402a4.2 4.2 0 0 1-.739 2.402.781.781 0 0 0 .656 1.226c.261 0 .51-.113.667-.34a5.786 5.786 0 0 0 1.01-3.288z" fill="#f2f2f2"></path><path d="M21.281 10.403a6.576 6.576 0 0 1 1.125 3.68 6.643 6.643 0 0 1-1.125 3.69c-.364.526.042 1.227.656 1.227.261 0 .51-.123.667-.35A8.093 8.093 0 0 0 24 14.082l-.001.002a8.032 8.032 0 0 0-1.396-4.557c-.593-.883-1.911.026-1.322.876zM.803 1.644v-.001l.002-.001z" fill="#f2f2f2"></path></svg>