<svg xmlns="http://www.w3.org/2000/svg" viewBox="0 0 24 24" id="sound-cloud"><path d="M20.5 18.502h-8a.5.5 0 0 1-.5-.5v-12a.5.5 0 0 1 .5-.5 6.508 6.508 0 0 1 6.498 6.342 3.46 3.46 0 0 1 1.502-.342c1.93 0 3.5 1.57 3.5 3.5s-1.57 3.5-3.5 3.5zm-7.5-1h7.5c1.379 0 2.5-1.122 2.5-2.5s-1.121-2.5-2.5-2.5a2.49 2.49 0 0 0-1.72.694.5.5 0 0 1-.84-.431c.035-.25.06-.502.06-.762 0-2.864-2.2-5.224-5-5.478v10.977zM.5 17.502a.5.5 0 0 1-.5-.5v-4a.5.5 0 0 1 1 0v4a.5.5 0 0 1-.5.5zM3.5 18.502a.5.5 0 0 1-.5-.5v-8a.5.5 0 0 1 1 0v8a.5.5 0 0 1-.5.5zM6.5 18.502a.5.5 0 0 1-.5-.5v-7a.5.5 0 0 1 1 0v7a.5.5 0 0 1-.5.5zM9.5 18.502a.5.5 0 0 1-.5-.5v-11a.5.5 0 0 1 1 0v11a.5.5 0 0 1-.5.5z" fill="#f2f2f2"></path></svg>