<svg xmlns="http://www.w3.org/2000/svg" enable-background="new 0 0 24 24" viewBox="0 0 24 24" id="youtube"><path fill="#f2f2f2" d="m9.5 16c-.086 0-.172-.022-.249-.066-.155-.09-.251-.255-.251-.434v-7c0-.179.096-.345.251-.434.156-.088.349-.087.501.002l6 3.505c.154.091.248.255.248.433s-.095.342-.248.432l-6 3.495c-.078.045-.165.067-.252.067zm.5-6.629v5.259l4.508-2.625z"></path><path fill="#f2f2f2" d="m12.01 21c-3.701 0-6.418-.282-8.046-.519-1.787-.259-3.196-1.637-3.507-3.428-.604-3.495-.604-6.611 0-10.106.311-1.792 1.72-3.169 3.507-3.429 1.628-.236 4.343-.518 8.036-.518s6.408.282 8.036.518c1.787.26 3.196 1.637 3.507 3.428.303 1.756.457 3.456.457 5.054 0 1.599-.154 3.299-.457 5.055-.311 1.791-1.719 3.168-3.506 3.428-1.622.236-4.331.517-8.027.517zm-.01-17c-3.634 0-6.297.276-7.892.507-1.358.197-2.43 1.246-2.665 2.61-.592 3.423-.592 6.343 0 9.766.235 1.364 1.307 2.412 2.664 2.609 1.596.232 4.262.508 7.903.508 3.637 0 6.294-.275 7.883-.506 1.358-.198 2.429-1.246 2.665-2.61h-.001c.294-1.699.443-3.342.443-4.884 0-1.541-.149-3.184-.443-4.883-.235-1.363-1.307-2.412-2.665-2.609-1.595-.232-4.258-.508-7.892-.508zm11.05 12.969h.01z"></path></svg>